HIERARCHY
ROOT Hips
{
	OFFSET	0.00	0.00	0.00
	CHANNELS 6 Xposition Yposition Zposition Zrotation Xrotation Yrotation
	JOINT LeftUpLeg
	{
		OFFSET	 0.126116	-0.014019	-0.065224
		CHANNELS 3 Zrotation Xrotation Yrotation
		JOINT LeftLeg
		{
			OFFSET	 0.000000	 0.000000	 0.569914
			CHANNELS 3 Zrotation Xrotation Yrotation
			JOINT LeftFoot
			{
				OFFSET	 0.000000	 0.000000	 0.544423
				CHANNELS 3 Zrotation Xrotation Yrotation
				JOINT LeftToeBase
				{
					OFFSET	 0.000000	 0.000000	 0.207117
					CHANNELS 3 Zrotation Xrotation Yrotation
					End Site
					{
						OFFSET	 0.000000	 0.000000	 0.207117
					}
				}
			}
		}
	}
	JOINT RightUpLeg
	{
		OFFSET	-0.124023	-0.008373	-0.065224
		CHANNELS 3 Zrotation Xrotation Yrotation
		JOINT RightLeg
		{
			OFFSET	 0.000000	 0.000000	 0.570047
			CHANNELS 3 Zrotation Xrotation Yrotation
			JOINT RightFoot
			{
				OFFSET	 0.000000	 0.000000	 0.544354
				CHANNELS 3 Zrotation Xrotation Yrotation
				JOINT RightToeBase
				{
					OFFSET	 0.000000	 0.000000	 0.207540
					CHANNELS 3 Zrotation Xrotation Yrotation
					End Site
					{
						OFFSET	 0.000000	 0.000000	 0.207540
					}
				}
			}
		}
	}
	JOINT Spine
	{
		OFFSET	 0.000184	-0.007763	 0.117403
		CHANNELS 3 Zrotation Xrotation Yrotation
		JOINT Spine1
		{
			OFFSET	 0.000000	 0.000000	 0.137269
			CHANNELS 3 Zrotation Xrotation Yrotation
			JOINT Spine2
			{
				OFFSET	 0.000000	 0.000000	 0.156879
				CHANNELS 3 Zrotation Xrotation Yrotation
				JOINT LeftShoulder
				{
					OFFSET	 0.080501	-0.002496	 0.160144
					CHANNELS 3 Zrotation Xrotation Yrotation
					JOINT LeftArm
					{
						OFFSET	 0.000000	 0.000000	 0.164363
						CHANNELS 3 Zrotation Xrotation Yrotation
						JOINT LeftForeArm
						{
							OFFSET	 0.000000	 0.000000	 0.364576
							CHANNELS 3 Zrotation Xrotation Yrotation
							JOINT LeftHand
							{
								OFFSET	 0.000000	 0.000000	 0.360812
								CHANNELS 3 Zrotation Xrotation Yrotation
								JOINT LeftHandIndex1
								{
									OFFSET	 0.000000	 0.000000	 0.086006
									CHANNELS 3 Zrotation Xrotation Yrotation
									JOINT LeftHandIndex2
									{
										OFFSET	 0.000000	 0.000000	 0.047236
										CHANNELS 3 Zrotation Xrotation Yrotation
										JOINT LeftHandIndex3
										{
											OFFSET	-0.004284	-0.000551	 0.038166
											CHANNELS 3 Zrotation Xrotation Yrotation
											End Site
											{
												OFFSET	-0.004284	-0.000551	 0.038166
											}
										}
									}
								}
							}
						}
					}
				}
				JOINT Neck
				{
					OFFSET	 0.000000	 0.000000	 0.176489
					CHANNELS 3 Zrotation Xrotation Yrotation
					JOINT Head
					{
						OFFSET	 0.000000	-0.001747	 0.077940
						CHANNELS 3 Zrotation Xrotation Yrotation
						End Site
						{
							OFFSET	 0.000000	-0.001747	 0.077940
						}
					}
				}
				JOINT RightShoulder
				{
					OFFSET	-0.080363	 0.000306	 0.159706
					CHANNELS 3 Zrotation Xrotation Yrotation
					JOINT RightArm
					{
						OFFSET	 0.000000	 0.000000	 0.164196
						CHANNELS 3 Zrotation Xrotation Yrotation
						JOINT RightForeArm
						{
							OFFSET	 0.000000	 0.000000	 0.365611
							CHANNELS 3 Zrotation Xrotation Yrotation
							JOINT RightHand
							{
								OFFSET	 0.000000	 0.000000	 0.360648
								CHANNELS 3 Zrotation Xrotation Yrotation
								JOINT RightHandIndex1
								{
									OFFSET	 0.000000	 0.000000	 0.069977
									CHANNELS 3 Zrotation Xrotation Yrotation
									JOINT RightHandIndex2
									{
										OFFSET	 0.000000	 0.000000	 0.052305
										CHANNELS 3 Zrotation Xrotation Yrotation
										JOINT RightHandIndex3
										{
											OFFSET	 0.009002	-0.000782	 0.042196
											CHANNELS 3 Zrotation Xrotation Yrotation
											End Site
											{
												OFFSET	 0.009002	-0.000782	 0.042196
											}
										}
									}
								}
							}
						}
					}
				}
			}
		}
	}
}
MOTION
Frames:    5
Frame Time: 0.03333334
-0.073572	 6.685786	 1.252876	-95.690280	 2.025691	 1.245468	-43.426490	-10.436740	-178.245100	 18.008650	-41.511990	 5.966192	-93.889560	 74.454760	 71.096010	-2.202062	 46.704370	-0.472582	 24.828820	-9.142486	-179.344300	-8.302100	-43.256400	-0.145045	 53.490600	 81.486570	-37.458830	 1.962133	 56.295360	 0.849294	-24.432610	 6.408840	 2.011635	-13.640100	 4.995963	-10.506680	-0.744425	-19.442110	 5.901846	-91.229390	 83.958270	 178.242700	 78.304270	 58.642940	-78.622630	 2.044046	-16.036750	-41.702930	 29.216600	-3.351318	-11.773180	-11.575160	 9.737454	-25.669860	-5.213937	-0.202400	 3.566957	-1.378229	 35.397820	-2.634230	-0.547248	 4.473576	 1.273106	-5.270700	-13.438730	-12.877800	 87.565770	 87.541700	-176.599100	-10.381220	 72.609510	 6.865340	-8.356385	-0.240549	 1.056807	-22.207280	-10.952740	 9.067957	-1.435628	 24.494010	-62.110650	 5.070519	-0.690904	-9.399550	-2.350882	 35.473990	 5.254307
-0.073426	 6.721763	 1.254321	-89.056480	 3.130108	 1.871821	-46.408080	-10.473720	 179.420700	 19.528930	-42.276300	 7.093810	-92.561550	 73.062840	 69.641160	-2.246944	 43.932580	-0.386581	 19.706850	-7.792215	-178.474000	-5.251504	-39.897610	 1.821782	 54.043590	 81.993840	-39.814560	 2.070019	 52.678770	 0.690776	-25.523410	 5.865497	 1.738583	-13.845320	 6.722178	-11.127970	 3.542595	-22.463440	 7.468816	-91.229260	 83.958310	 178.242600	 82.997740	 64.782330	-80.768540	 2.881491	-16.399880	-40.749990	 26.516620	-5.972937	-8.997828	-11.067690	 9.176837	-23.425660	-5.213937	-0.202400	 3.566957	-1.378229	 35.397820	-2.634230	 3.381967	 6.593331	-3.412151	-1.226975	-18.248600	-5.875331	 87.585170	 87.527810	-176.619200	-8.255016	 72.681740	 4.922315	-7.928149	-0.232892	 0.888996	-22.227380	-10.907160	 9.133713	-1.222432	 24.915080	-62.550410	 5.070519	-0.690904	-9.399550	-2.350882	 35.473990	 5.254307
-0.074226	 6.756394	 1.255115	-83.587880	 3.567405	 1.977635	-46.899220	-10.406740	 178.092600	 19.905850	-42.699070	 7.411095	-89.433560	 72.605260	 66.917870	-2.272485	 42.096490	-0.333334	 14.889300	-6.947483	-179.184600	-2.338087	-39.322330	 3.652516	 62.224140	 84.266770	-49.302300	 2.109238	 51.108080	 0.629234	-25.732550	 5.549819	 1.809054	-13.480550	 7.916877	-10.958640	 7.762743	-24.209540	 9.093996	-91.229290	 83.958370	 178.242600	 83.144100	 72.214550	-79.735100	 2.933581	-15.047340	-38.143860	 20.982030	-8.877074	-5.742715	-10.919600	 8.648980	-22.512750	-5.213937	-0.202400	 3.566957	-1.378229	 35.397820	-2.634230	 7.363106	 8.458018	-7.703938	 3.343240	-22.016160	 1.736376	 87.727010	 87.418890	-176.799000	-7.618967	 72.074430	 5.047586	-6.513906	-0.218428	 0.718869	-21.514030	-10.756400	 9.319507	-1.050695	 25.270920	-63.011230	 5.070519	-0.690904	-9.399550	-2.350882	 35.473990	 5.254307
-0.074800	 6.791656	 1.256043	-78.580790	 4.213849	 2.192467	-48.446210	-10.914210	 176.980100	 21.328410	-43.824610	 8.571776	-84.957180	 71.572240	 62.792210	-2.408820	 16.968000	 0.233704	 10.100290	-5.299225	-179.711500	 0.312667	-36.627200	 5.036630	 66.516600	 86.070160	-54.939020	 2.173428	 48.124340	 0.522035	-24.951890	 5.294366	 1.478061	-12.317160	 7.771318	-10.099050	 10.708830	-24.586190	 9.665949	-91.229330	 83.958340	 178.242700	 67.886600	 77.579250	-64.622570	 0.841172	-11.740230	-34.804000	 14.084180	-11.577190	-3.634721	-10.430210	 9.104731	-21.124830	-5.213937	-0.202400	 3.566957	-1.378229	 35.397820	-2.634230	 10.508430	 9.635072	-10.404700	 7.226116	-23.903360	 7.644728	 87.726970	 87.418960	-176.798900	-1.991281	 70.539920	 0.551706	-6.128293	-0.214041	 0.534981	-20.403150	-11.324540	 8.727535	-0.631732	 25.949270	-63.321730	 5.070519	-0.690904	-9.399550	-2.350882	 35.473990	 5.254307
-0.073046	 6.827298	 1.257944	-73.400480	 5.238925	 1.999361	-44.663760	-13.133090	 174.981600	 19.564940	-45.472560	 7.539242	-86.601050	 72.875560	 65.442340	-2.367865	 31.868700	-0.075680	 7.245207	-3.635778	 179.560300	 1.565256	-33.283040	 5.334081	 126.729200	 87.507550	-115.589100	 2.316519	 38.097820	 0.227555	-24.112820	 5.211699	 1.341323	-11.126430	 6.847870	-9.845637	 13.976040	-24.163760	 10.827590	-91.229260	 83.958270	 178.242600	 26.692410	 78.460950	-26.058610	-0.530225	-8.658647	-29.496120	 8.359952	-14.783640	-2.151126	-10.005250	 8.919088	-19.495840	-5.213937	-0.202400	 3.566957	-1.378229	 35.397820	-2.634230	 13.098340	 11.004330	-12.042010	 10.564880	-24.967280	 12.920440	 87.727160	 87.418890	-176.799100	 1.047360	 69.284920	-3.754457	-3.971146	-2.475067	 6.074514	-18.359310	-11.654060	 8.494955	-0.411090	 26.425440	-64.139950	 5.070519	-0.690904	-9.399550	-2.350882	 35.473990	 5.254307
